<?xml version="1.0" standalone="no"?>
<!DOCTYPE svg PUBLIC "-//W3C//DTD SVG 20010904//EN"
 "http://www.w3.org/TR/2001/REC-SVG-20010904/DTD/svg10.dtd">
<svg version="1.0" xmlns="http://www.w3.org/2000/svg"
 width="200.000000pt" height="200.000000pt" viewBox="0 0 200.000000 200.000000"
 preserveAspectRatio="xMidYMid meet">
<metadata>
Created by potrace 1.14, written by Peter Selinger 2001-2017
</metadata>
<g transform="translate(0.000000,200.000000) scale(0.100000,-0.100000)"
fill="#000000" stroke="none">
<path d="M958 1319 c-10 -10 -24 -16 -31 -13 -16 6 -51 -31 -43 -45 4 -6 -2
-19 -14 -31 -26 -26 -26 -61 0 -83 12 -10 18 -22 14 -28 -9 -16 26 -49 53 -49
13 0 26 -7 29 -15 9 -23 44 -19 44 5 0 21 33 29 45 10 11 -17 35 -11 35 9 0
25 -18 37 -33 22 -14 -14 -47 -15 -47 -1 0 6 -9 10 -20 10 -32 0 -70 44 -70
80 0 36 38 80 70 80 11 0 20 5 20 10 0 6 9 10 19 10 11 0 23 -4 26 -10 11 -17
35 -11 35 9 0 25 -18 37 -33 22 -18 -18 -47 -13 -47 9 0 25 -29 25 -52 -1z"/>
<path d="M1098 1260 c-14 -15 -30 -20 -71 -20 -67 0 -96 -24 -81 -68 8 -24 15
-27 59 -30 70 -3 95 -10 95 -26 0 -21 27 -27 41 -10 19 23 0 33 -71 40 -91 8
-107 12 -114 29 -10 27 30 55 82 56 69 2 107 12 107 29 0 23 -28 23 -47 0z"/>
<path d="M1055 1203 c-80 -5 -97 -23 -21 -23 31 0 66 -4 76 -10 13 -7 21 -6
30 5 13 16 5 36 -13 33 -7 -1 -39 -3 -72 -5z"/>
<path d="M612 969 c3 -8 14 -40 24 -71 10 -32 23 -58 30 -58 7 0 18 17 24 38
18 56 26 58 40 8 7 -26 18 -46 25 -46 7 0 23 28 34 62 24 70 25 78 12 78 -5 0
-17 -24 -27 -52 l-17 -53 -16 47 c-25 75 -27 74 -66 -27 -6 -17 -10 -12 -24
29 -10 28 -23 52 -31 54 -8 3 -11 -1 -8 -9z"/>
<path d="M990 956 c0 -19 -4 -22 -24 -19 -34 7 -61 -34 -47 -71 9 -22 16 -26
51 -26 l40 0 0 70 c0 40 -4 70 -10 70 -5 0 -10 -11 -10 -24z m-5 -56 c8 -26
-1 -40 -26 -40 -13 0 -19 7 -19 23 0 40 34 53 45 17z"/>
<path d="M825 920 c-37 -41 18 -108 62 -75 17 13 16 14 -14 15 -18 0 -33 5
-33 10 0 6 14 10 30 10 22 0 30 5 30 18 0 42 -45 55 -75 22z m50 -10 c3 -5 -3
-10 -15 -10 -12 0 -18 5 -15 10 3 6 10 10 15 10 5 0 12 -4 15 -10z"/>
<path d="M1041 926 c-34 -41 12 -104 59 -83 l25 11 -30 4 c-46 6 -55 22 -12
22 39 0 44 8 27 41 -13 22 -52 25 -69 5z m54 -16 c4 -6 -5 -10 -20 -10 -15 0
-24 4 -20 10 3 6 12 10 20 10 8 0 17 -4 20 -10z"/>
<path d="M1130 889 c0 -37 4 -49 15 -49 10 0 15 10 15 34 0 38 17 57 31 35 5
-8 9 -26 9 -41 0 -16 5 -28 10 -28 6 0 10 15 10 34 0 38 17 57 31 35 5 -8 9
-26 9 -41 0 -16 5 -28 10 -28 14 0 12 76 -2 88 -7 5 -41 9 -75 9 l-63 0 0 -48z"/>
<path d="M1296 918 c3 -13 13 -35 20 -50 13 -25 13 -29 -5 -45 -22 -19 -19
-35 6 -26 8 3 29 35 44 69 33 71 33 74 18 74 -5 0 -15 -13 -20 -30 -6 -16 -15
-30 -19 -30 -4 0 -13 14 -19 30 -12 35 -36 42 -25 8z"/>
<path d="M812 750 c0 -14 2 -19 5 -12 2 6 2 18 0 25 -3 6 -5 1 -5 -13z"/>
<path d="M1011 748 c0 -16 2 -18 6 -8 3 8 11 18 17 22 7 5 4 8 -6 8 -12 0 -18
-7 -17 -22z"/>
<path d="M1172 750 c0 -14 2 -19 5 -12 2 6 2 18 0 25 -3 6 -5 1 -5 -13z"/>
<path d="M1332 750 c0 -14 2 -19 5 -12 2 6 2 18 0 25 -3 6 -5 1 -5 -13z"/>
<path d="M1452 750 c0 -14 2 -19 5 -12 2 6 2 18 0 25 -3 6 -5 1 -5 -13z"/>
<path d="M1517 750 c3 -11 7 -20 8 -20 1 0 5 9 8 20 3 12 0 20 -8 20 -8 0 -11
-8 -8 -20z"/>
</g>
</svg>
